<svg class="logo-mark" width="640" height="640" viewBox="0 0 640 640" xmlns="http://www.w3.org/2000/svg">
<rect x="0" y="0" width="640" height="640" fill="#000000"/>
<path d="M 146.0,533.3 L 146.3,538.7 L 162.3,538.3 L 161.0,533.0 Z M 234.0,521.3 L 247.7,550.3 L 256.7,550.3 L 258.3,532.3 L 259.7,533.0 L 267.3,550.3 L 276.3,550.3 L 278.3,521.0 L 270.7,521.7 L 270.3,541.7 L 260.7,521.3 L 252.3,521.3 L 250.7,541.3 L 249.0,539.7 L 242.0,521.7 Z M 211.3,521.0 L 217.0,550.3 L 235.3,550.7 L 234.7,545.0 L 224.3,545.0 L 222.0,539.7 L 222.7,538.7 L 232.0,538.7 L 231.7,533.7 L 221.3,533.0 L 220.0,529.3 L 221.0,526.7 L 231.0,526.7 L 230.3,521.7 Z M 177.0,521.3 L 183.0,550.7 L 189.7,550.3 L 186.7,533.0 L 202.7,550.3 L 210.3,550.3 L 204.7,521.3 L 197.3,521.0 L 200.3,538.7 L 184.7,521.3 Z" fill="#ffffff" fill-rule="evenodd"/>
<path d="M 462.7,532.0 L 464.0,537.7 L 483.7,537.3 L 483.7,533.3 L 482.3,531.7 Z M 426.0,520.0 L 431.3,549.0 L 451.7,549.7 L 450.3,543.7 L 439.0,543.7 L 438.0,542.0 L 438.0,537.7 L 448.0,537.7 L 447.7,532.7 L 436.7,532.0 L 435.3,528.7 L 435.7,526.0 L 446.7,526.0 L 446.0,520.0 Z M 411.0,520.0 L 416.3,549.0 L 424.3,549.7 L 419.0,520.3 Z M 373.7,520.0 L 390.7,549.3 L 401.0,549.7 L 407.0,520.3 L 398.7,520.3 L 395.3,541.0 L 394.3,541.7 L 382.0,520.7 Z M 340.3,525.3 L 338.7,528.7 L 338.3,533.7 L 341.0,540.7 L 347.0,546.3 L 355.7,549.7 L 362.0,549.7 L 369.3,546.7 L 373.0,541.7 L 373.0,534.3 L 376.0,534.0 L 376.0,529.0 L 371.0,529.0 L 365.0,523.3 L 356.3,520.0 L 346.3,521.0 Z M 347.3,529.3 L 348.0,534.0 L 364.7,534.0 L 365.3,538.3 L 364.0,541.3 L 359.7,543.7 L 355.7,543.7 L 351.0,541.7 L 346.7,535.0 Z M 347.7,528.7 L 352.3,526.0 L 356.3,526.0 L 361.7,528.7 Z M 299.0,520.3 L 299.3,549.7 L 307.0,549.3 L 304.0,533.3 L 315.0,549.7 L 321.3,549.3 L 325.0,533.3 L 329.0,549.7 L 337.0,549.3 L 330.7,520.0 L 321.3,520.7 L 316.3,539.7 L 315.0,539.3 L 303.3,520.7 Z M 244.3,204.0 L 245.0,264.3 L 372.3,392.7 L 374.3,392.7 L 374.7,333.3 L 246.3,204.0 Z M 428.3,106.0 L 426.0,106.3 L 426.0,394.3 L 422.0,410.3 L 414.0,424.3 L 399.3,437.0 L 384.3,443.0 L 368.3,444.0 L 349.3,438.0 L 338.3,430.0 L 246.3,337.0 L 244.0,337.3 L 244.0,390.3 L 318.3,464.7 L 339.3,476.7 L 342.3,476.7 L 356.3,481.7 L 391.3,481.7 L 405.3,477.7 L 424.3,467.7 L 443.7,449.7 L 448.7,442.7 L 458.7,422.3 L 462.7,406.3 L 463.7,142.3 Z M 246.3,88.0 L 214.3,89.0 L 204.3,92.0 L 186.3,101.0 L 170.0,116.0 L 168.0,120.3 L 165.0,123.0 L 161.0,130.3 L 154.0,149.3 L 153.0,419.3 L 190.3,457.7 L 192.7,457.3 L 192.7,158.3 L 194.7,151.3 L 201.7,139.3 L 212.3,130.7 L 224.3,125.7 L 241.3,125.7 L 254.3,131.7 L 372.3,249.7 L 374.7,249.3 L 374.7,196.3 L 282.3,103.0 L 267.3,94.0 Z" fill="#cdfa0a" fill-rule="evenodd"/>
</svg>